<?xml version="1.0" encoding="UTF-8" standalone="no"?><svg xmlns="http://www.w3.org/2000/svg" xmlns:xlink="http://www.w3.org/1999/xlink" contentScriptType="application/ecmascript" contentStyleType="text/css" height="513px" preserveAspectRatio="none" style="width:725px;height:513px;" version="1.1" viewBox="0 0 725 513" width="725px" zoomAndPan="magnify"><defs><filter height="300%" id="fzu78wmax0gio" width="300%" x="-1" y="-1"><feGaussianBlur result="blurOut" stdDeviation="2.0"/><feColorMatrix in="blurOut" result="blurOut2" type="matrix" values="0 0 0 0 0 0 0 0 0 0 0 0 0 0 0 0 0 0 .4 0"/><feOffset dx="4.0" dy="4.0" in="blurOut2" result="blurOut3"/><feBlend in="SourceGraphic" in2="blurOut3" mode="normal"/></filter></defs><g><line style="stroke:#A80036;stroke-width:1.0;stroke-dasharray:5.0,5.0;" x1="52" x2="52" y1="88.2969" y2="428.7578"/><line style="stroke:#A80036;stroke-width:1.0;stroke-dasharray:5.0,5.0;" x1="147.5" x2="147.5" y1="88.2969" y2="428.7578"/><line style="stroke:#A80036;stroke-width:1.0;stroke-dasharray:5.0,5.0;" x1="292.5" x2="292.5" y1="88.2969" y2="428.7578"/><line style="stroke:#A80036;stroke-width:1.0;stroke-dasharray:5.0,5.0;" x1="416" x2="416" y1="88.2969" y2="428.7578"/><line style="stroke:#A80036;stroke-width:1.0;stroke-dasharray:5.0,5.0;" x1="508" x2="508" y1="88.2969" y2="428.7578"/><line style="stroke:#A80036;stroke-width:1.0;stroke-dasharray:5.0,5.0;" x1="683" x2="683" y1="88.2969" y2="428.7578"/><text fill="#000000" font-family="sans-serif" font-size="14" lengthAdjust="spacingAndGlyphs" textLength="89" x="5" y="84.9951">TelegramUser</text><ellipse cx="52.5" cy="15" fill="#FEFECE" filter="url(#fzu78wmax0gio)" rx="8" ry="8" style="stroke:#A80036;stroke-width:2.0;"/><path d="M52.5,23 L52.5,50 M39.5,31 L65.5,31 M52.5,50 L39.5,65 M52.5,50 L65.5,65 " fill="none" filter="url(#fzu78wmax0gio)" style="stroke:#A80036;stroke-width:2.0;"/><text fill="#000000" font-family="sans-serif" font-size="14" lengthAdjust="spacingAndGlyphs" textLength="89" x="5" y="440.7529">TelegramUser</text><ellipse cx="52.5" cy="454.0547" fill="#FEFECE" filter="url(#fzu78wmax0gio)" rx="8" ry="8" style="stroke:#A80036;stroke-width:2.0;"/><path d="M52.5,462.0547 L52.5,489.0547 M39.5,470.0547 L65.5,470.0547 M52.5,489.0547 L39.5,504.0547 M52.5,489.0547 L65.5,504.0547 " fill="none" filter="url(#fzu78wmax0gio)" style="stroke:#A80036;stroke-width:2.0;"/><rect fill="#FEFECE" filter="url(#fzu78wmax0gio)" height="30.2969" style="stroke:#A80036;stroke-width:1.5;" width="36" x="127.5" y="53"/><text fill="#000000" font-family="sans-serif" font-size="14" lengthAdjust="spacingAndGlyphs" textLength="22" x="134.5" y="72.9951">Bot</text><rect fill="#FEFECE" filter="url(#fzu78wmax0gio)" height="30.2969" style="stroke:#A80036;stroke-width:1.5;" width="36" x="127.5" y="427.7578"/><text fill="#000000" font-family="sans-serif" font-size="14" lengthAdjust="spacingAndGlyphs" textLength="22" x="134.5" y="447.7529">Bot</text><rect fill="#FEFECE" filter="url(#fzu78wmax0gio)" height="30.2969" style="stroke:#A80036;stroke-width:1.5;" width="40" x="270.5" y="53"/><text fill="#000000" font-family="sans-serif" font-size="14" lengthAdjust="spacingAndGlyphs" textLength="26" x="277.5" y="72.9951">Hub</text><rect fill="#FEFECE" filter="url(#fzu78wmax0gio)" height="30.2969" style="stroke:#A80036;stroke-width:1.5;" width="40" x="270.5" y="427.7578"/><text fill="#000000" font-family="sans-serif" font-size="14" lengthAdjust="spacingAndGlyphs" textLength="26" x="277.5" y="447.7529">Hub</text><text fill="#000000" font-family="sans-serif" font-size="14" lengthAdjust="spacingAndGlyphs" textLength="59" x="384" y="84.9951">Database</text><path d="M398.5,36 C398.5,26 416.5,26 416.5,26 C416.5,26 434.5,26 434.5,36 L434.5,62 C434.5,72 416.5,72 416.5,72 C416.5,72 398.5,72 398.5,62 L398.5,36 " fill="#FEFECE" filter="url(#fzu78wmax0gio)" style="stroke:#000000;stroke-width:1.5;"/><path d="M398.5,36 C398.5,46 416.5,46 416.5,46 C416.5,46 434.5,46 434.5,36 " fill="none" style="stroke:#000000;stroke-width:1.5;"/><text fill="#000000" font-family="sans-serif" font-size="14" lengthAdjust="spacingAndGlyphs" textLength="59" x="384" y="440.7529">Database</text><path d="M398.5,454.0547 C398.5,444.0547 416.5,444.0547 416.5,444.0547 C416.5,444.0547 434.5,444.0547 434.5,454.0547 L434.5,480.0547 C434.5,490.0547 416.5,490.0547 416.5,490.0547 C416.5,490.0547 398.5,490.0547 398.5,480.0547 L398.5,454.0547 " fill="#FEFECE" filter="url(#fzu78wmax0gio)" style="stroke:#000000;stroke-width:1.5;"/><path d="M398.5,454.0547 C398.5,464.0547 416.5,464.0547 416.5,464.0547 C416.5,464.0547 434.5,464.0547 434.5,454.0547 " fill="none" style="stroke:#000000;stroke-width:1.5;"/><rect fill="#FEFECE" filter="url(#fzu78wmax0gio)" height="30.2969" style="stroke:#A80036;stroke-width:1.5;" width="95" x="459" y="53"/><text fill="#000000" font-family="sans-serif" font-size="14" lengthAdjust="spacingAndGlyphs" textLength="81" x="466" y="72.9951">Notifications</text><rect fill="#FEFECE" filter="url(#fzu78wmax0gio)" height="30.2969" style="stroke:#A80036;stroke-width:1.5;" width="95" x="459" y="427.7578"/><text fill="#000000" font-family="sans-serif" font-size="14" lengthAdjust="spacingAndGlyphs" textLength="81" x="466" y="447.7529">Notifications</text><rect fill="#FEFECE" filter="url(#fzu78wmax0gio)" height="30.2969" style="stroke:#A80036;stroke-width:1.5;" width="59" x="652" y="53"/><text fill="#000000" font-family="sans-serif" font-size="14" lengthAdjust="spacingAndGlyphs" textLength="45" x="659" y="72.9951">GitHub</text><rect fill="#FEFECE" filter="url(#fzu78wmax0gio)" height="30.2969" style="stroke:#A80036;stroke-width:1.5;" width="59" x="652" y="427.7578"/><text fill="#000000" font-family="sans-serif" font-size="14" lengthAdjust="spacingAndGlyphs" textLength="45" x="659" y="447.7529">GitHub</text><polygon fill="#A80036" points="135.5,115.4297,145.5,119.4297,135.5,123.4297,139.5,119.4297" style="stroke:#A80036;stroke-width:1.0;"/><line style="stroke:#A80036;stroke-width:1.0;" x1="52.5" x2="141.5" y1="119.4297" y2="119.4297"/><text fill="#000000" font-family="sans-serif" font-size="13" lengthAdjust="spacingAndGlyphs" textLength="44" x="59.5" y="114.3638">Chat ID</text><polygon fill="#A80036" points="280.5,144.5625,290.5,148.5625,280.5,152.5625,284.5,148.5625" style="stroke:#A80036;stroke-width:1.0;"/><line style="stroke:#A80036;stroke-width:1.0;" x1="147.5" x2="286.5" y1="148.5625" y2="148.5625"/><text fill="#000000" font-family="sans-serif" font-size="13" lengthAdjust="spacingAndGlyphs" textLength="86" x="154.5" y="143.4966">Token, Chat ID</text><polygon fill="#A80036" points="496.5,173.6953,506.5,177.6953,496.5,181.6953,500.5,177.6953" style="stroke:#A80036;stroke-width:1.0;"/><line style="stroke:#A80036;stroke-width:1.0;" x1="292.5" x2="502.5" y1="177.6953" y2="177.6953"/><text fill="#000000" font-family="sans-serif" font-size="13" lengthAdjust="spacingAndGlyphs" textLength="80" x="299.5" y="172.6294">GitHub Token</text><polygon fill="#A80036" points="404.5,202.8281,414.5,206.8281,404.5,210.8281,408.5,206.8281" style="stroke:#A80036;stroke-width:1.0;"/><line style="stroke:#A80036;stroke-width:1.0;" x1="292.5" x2="410.5" y1="206.8281" y2="206.8281"/><text fill="#000000" font-family="sans-serif" font-size="13" lengthAdjust="spacingAndGlyphs" textLength="86" x="299.5" y="201.7622">Chat ID, Token</text><polygon fill="#A80036" points="671.5,231.9609,681.5,235.9609,671.5,239.9609,675.5,235.9609" style="stroke:#A80036;stroke-width:1.0;"/><line style="stroke:#A80036;stroke-width:1.0;" x1="508.5" x2="677.5" y1="235.9609" y2="235.9609"/><text fill="#000000" font-family="sans-serif" font-size="13" lengthAdjust="spacingAndGlyphs" textLength="80" x="515.5" y="230.895">GitHub Token</text><polygon fill="#A80036" points="519.5,261.0938,509.5,265.0938,519.5,269.0938,515.5,265.0938" style="stroke:#A80036;stroke-width:1.0;"/><line style="stroke:#A80036;stroke-width:1.0;stroke-dasharray:2.0,2.0;" x1="513.5" x2="682.5" y1="265.0938" y2="265.0938"/><text fill="#000000" font-family="sans-serif" font-size="13" lengthAdjust="spacingAndGlyphs" textLength="151" x="525.5" y="260.0278">Subscription, Data Stream</text><polygon fill="#A80036" points="303.5,290.2266,293.5,294.2266,303.5,298.2266,299.5,294.2266" style="stroke:#A80036;stroke-width:1.0;"/><line style="stroke:#A80036;stroke-width:1.0;stroke-dasharray:2.0,2.0;" x1="297.5" x2="507.5" y1="294.2266" y2="294.2266"/><text fill="#000000" font-family="sans-serif" font-size="13" lengthAdjust="spacingAndGlyphs" textLength="113" x="309.5" y="289.1606">Token, Data Stream</text><polygon fill="#A80036" points="404.5,319.3594,414.5,323.3594,404.5,327.3594,408.5,323.3594" style="stroke:#A80036;stroke-width:1.0;"/><line style="stroke:#A80036;stroke-width:1.0;" x1="292.5" x2="410.5" y1="323.3594" y2="323.3594"/><text fill="#000000" font-family="sans-serif" font-size="13" lengthAdjust="spacingAndGlyphs" textLength="100" x="299.5" y="318.2935">Chat ID by Token</text><polygon fill="#A80036" points="303.5,348.4922,293.5,352.4922,303.5,356.4922,299.5,352.4922" style="stroke:#A80036;stroke-width:1.0;"/><line style="stroke:#A80036;stroke-width:1.0;stroke-dasharray:2.0,2.0;" x1="297.5" x2="415.5" y1="352.4922" y2="352.4922"/><text fill="#000000" font-family="sans-serif" font-size="13" lengthAdjust="spacingAndGlyphs" textLength="44" x="309.5" y="347.4263">Chat ID</text><polygon fill="#A80036" points="158.5,377.625,148.5,381.625,158.5,385.625,154.5,381.625" style="stroke:#A80036;stroke-width:1.0;"/><line style="stroke:#A80036;stroke-width:1.0;stroke-dasharray:2.0,2.0;" x1="152.5" x2="291.5" y1="381.625" y2="381.625"/><text fill="#000000" font-family="sans-serif" font-size="13" lengthAdjust="spacingAndGlyphs" textLength="121" x="164.5" y="376.5591">Chat ID, Data Stream</text><polygon fill="#A80036" points="63.5,406.7578,53.5,410.7578,63.5,414.7578,59.5,410.7578" style="stroke:#A80036;stroke-width:1.0;"/><line style="stroke:#A80036;stroke-width:1.0;stroke-dasharray:2.0,2.0;" x1="57.5" x2="146.5" y1="410.7578" y2="410.7578"/><text fill="#000000" font-family="sans-serif" font-size="13" lengthAdjust="spacingAndGlyphs" textLength="71" x="69.5" y="405.6919">Data Stream</text><!--MD5=[e397bf0a860849b43d239da96de4fd7c]
@startuml
actor       TelegramUser as user
participant Bot as bot
participant Hub as hub
database    Database    as db
participant Notifications as notifications
participant GitHub as github


user -> bot : Chat ID
bot -> hub : Token, Chat ID
hub -> notifications: GitHub Token
hub -> db: Chat ID, Token
notifications -> github: GitHub Token
github - -> notifications: Subscription, Data Stream
notifications - -> hub: Token, Data Stream
hub -> db: Chat ID by Token
db - -> hub: Chat ID
hub - -> bot: Chat ID, Data Stream
bot - -> user: Data Stream
@enduml

PlantUML version 1.2020.23(Sun Dec 13 19:14:58 GMT 2020)
(GPL source distribution)
Java Runtime: OpenJDK Runtime Environment
JVM: OpenJDK 64-Bit Server VM
Default Encoding: UTF-8
Language: en
Country: US
--></g></svg>